<mxfile host="app.diagrams.net" modified="2024-01-29T10:56:20.840Z" agent="Mozilla/5.0 (Windows NT 10.0; Win64; x64) AppleWebKit/537.36 (KHTML, like Gecko) Chrome/120.0.0.0 Safari/537.36 OPR/106.0.0.0" etag="Afu3i27OfbCyhAchFxzk" version="23.0.2" type="github">
  <diagram name="Page-1" id="2c0d36ab-eaac-3732-788b-9136903baeff">
    <mxGraphModel dx="1380" dy="741" grid="1" gridSize="10" guides="1" tooltips="1" connect="1" arrows="1" fold="1" page="1" pageScale="1.5" pageWidth="1169" pageHeight="827" background="none" math="0" shadow="0">
      <root>
        <mxCell id="0" />
        <mxCell id="1" parent="0" />
        <mxCell id="5IuyLXdu-ntTr0TkIV0r-62" style="edgeStyle=orthogonalEdgeStyle;rounded=0;orthogonalLoop=1;jettySize=auto;html=1;exitX=0.5;exitY=1;exitDx=0;exitDy=0;entryX=0.5;entryY=0;entryDx=0;entryDy=0;" edge="1" parent="1" source="q3_ttucHUWi1IPVSle__-128" target="q3_ttucHUWi1IPVSle__-128">
          <mxGeometry relative="1" as="geometry" />
        </mxCell>
        <mxCell id="61" value="" style="edgeStyle=elbowEdgeStyle;elbow=vertical;strokeWidth=2;rounded=0;entryX=0.5;entryY=1;entryDx=0;entryDy=0;" parent="1" source="2" target="q3_ttucHUWi1IPVSle__-130" edge="1">
          <mxGeometry x="-23" y="135.5" width="100" height="100" as="geometry">
            <mxPoint x="-13" y="545.5" as="sourcePoint" />
            <mxPoint x="675" y="645.5" as="targetPoint" />
          </mxGeometry>
        </mxCell>
        <mxCell id="q3_ttucHUWi1IPVSle__-131" value="" style="fillColor=#008a00;strokeColor=#005700;opacity=30;fontSize=30;fontColor=#ffffff;movable=0;resizable=0;rotatable=0;deletable=0;editable=0;locked=1;connectable=0;" parent="1" vertex="1">
          <mxGeometry x="210" y="585" width="1260" height="315" as="geometry" />
        </mxCell>
        <mxCell id="2" value="MainLayout" style="rounded=1;fillColor=#f8cecc;strokeColor=#b85450;fontStyle=1;fontFamily=Tahoma;fontSize=14" parent="1" vertex="1">
          <mxGeometry x="1010" y="430" width="190" height="80" as="geometry" />
        </mxCell>
        <mxCell id="12" value="&lt;CascadingValue Value=&quot;@loggedClient&quot;&gt;&#xa;MainHeader" style="rounded=1;fillColor=#e6d0de;strokeColor=#996185;fontStyle=1;fontFamily=Tahoma;fontSize=14;gradientColor=#d5739d;" parent="1" vertex="1">
          <mxGeometry x="935" y="580" width="340" height="80" as="geometry" />
        </mxCell>
        <mxCell id="59" value="" style="edgeStyle=elbowEdgeStyle;elbow=vertical;strokeWidth=2;rounded=0" parent="1" source="2" target="12" edge="1">
          <mxGeometry x="347" y="225.5" width="100" height="100" as="geometry">
            <mxPoint x="871.9999999999999" y="585.5" as="sourcePoint" />
            <mxPoint x="1476.9999999999998" y="655.5" as="targetPoint" />
          </mxGeometry>
        </mxCell>
        <mxCell id="q3_ttucHUWi1IPVSle__-123" value="LoggedClientProvider" style="fillColor=#008a00;strokeColor=#005700;opacity=30;fontSize=30;fontColor=#ffffff;" parent="1" vertex="1">
          <mxGeometry x="210" y="510" width="1260" height="70" as="geometry" />
        </mxCell>
        <mxCell id="q3_ttucHUWi1IPVSle__-127" value="Inicio" style="rounded=1;fillColor=#e6d0de;strokeColor=#996185;fontStyle=1;fontFamily=Tahoma;fontSize=14;gradientColor=#d5739d;" parent="1" vertex="1">
          <mxGeometry x="500" y="585" width="190" height="40" as="geometry" />
        </mxCell>
        <mxCell id="q3_ttucHUWi1IPVSle__-128" value="Mis Compras" style="rounded=1;fillColor=#e6d0de;strokeColor=#996185;fontStyle=1;fontFamily=Tahoma;fontSize=14;gradientColor=#d5739d;" parent="1" vertex="1">
          <mxGeometry x="500" y="645" width="190" height="40" as="geometry" />
        </mxCell>
        <mxCell id="q3_ttucHUWi1IPVSle__-129" value="Mis Opiniones" style="rounded=1;fillColor=#e6d0de;strokeColor=#996185;fontStyle=1;fontFamily=Tahoma;fontSize=14;gradientColor=#d5739d;" parent="1" vertex="1">
          <mxGeometry x="500" y="705" width="190" height="40" as="geometry" />
        </mxCell>
        <mxCell id="q3_ttucHUWi1IPVSle__-130" value="Mis Listas" style="rounded=1;fillColor=#e6d0de;gradientColor=#d5739d;strokeColor=#996185;fontStyle=1;fontFamily=Tahoma;fontSize=14" parent="1" vertex="1">
          <mxGeometry x="500" y="765" width="190" height="40" as="geometry" />
        </mxCell>
      </root>
    </mxGraphModel>
  </diagram>
</mxfile>
